<svg width="1550" height="343" viewBox="0 0 1550 343" fill="none" xmlns="http://www.w3.org/2000/svg">
<path d="M149.088 89.0333C163.94 97.7858 176.31 110.225 185.013 125.159C194.045 140.277 198.73 157.619 198.545 175.254C198.778 192.896 194.09 210.25 185.013 225.349C176.307 240.333 163.942 252.833 149.088 261.668C134.011 270.625 116.784 275.264 99.2726 275.082C75.0919 275.183 51.7341 266.258 33.7217 250.035V342.975H0.000288442V175.086C-0.0425787 157.446 4.69339 140.128 13.6996 124.991C22.3962 110.152 34.7004 97.7786 49.4568 89.0333C64.4806 79.9272 81.7321 75.2148 99.2726 75.4259C116.802 75.2988 134.032 80.0051 149.088 89.0333ZM66.1739 118.175C56.4186 123.975 48.2791 132.16 42.5114 141.97C36.798 152.122 33.7953 163.589 33.7953 175.254C33.7953 186.919 36.798 198.386 42.5114 208.538C48.2249 218.39 56.3767 226.588 66.1739 232.333C76.2295 238.186 87.6423 241.267 99.2606 241.267C110.879 241.267 122.292 238.186 132.347 232.333C142.108 226.54 150.249 218.353 156.01 208.538C161.723 198.386 164.726 186.919 164.726 175.254C164.726 163.589 161.723 152.122 156.01 141.97C150.195 132.197 142.066 124.022 132.347 118.175C122.259 112.42 110.859 109.395 99.2606 109.395C87.6623 109.395 76.2622 112.42 66.1739 118.175Z" fill="white" fill-opacity="0.2"/>
<path d="M356.567 89.0351C371.418 97.7876 383.788 110.226 392.491 125.161C401.523 140.279 406.208 157.62 406.023 175.256C406.256 192.898 401.568 210.252 392.491 225.351C383.786 240.334 371.42 252.835 356.567 261.669C341.419 270.458 324.239 275.085 306.751 275.085C289.263 275.085 272.083 270.458 256.935 261.669C242.081 252.835 229.716 240.334 221.01 225.351C211.933 210.252 207.246 192.898 207.478 175.256C207.294 157.62 211.978 140.279 221.01 125.161C229.714 110.226 242.083 97.7876 256.935 89.0351C272.041 80.1245 289.238 75.427 306.751 75.427C324.264 75.427 341.46 80.1245 356.567 89.0351ZM273.652 118.177C263.904 123.978 255.772 132.163 250.014 141.972C244.144 152.06 241.129 163.569 241.296 175.256C241.129 186.943 244.144 198.452 250.014 208.54C255.718 218.391 263.862 226.589 273.652 232.335C283.712 238.187 295.129 241.269 306.751 241.269C318.373 241.269 329.789 238.187 339.85 232.335C349.605 226.535 357.744 218.35 363.512 208.54C369.225 198.388 372.228 186.921 372.228 175.256C372.228 163.591 369.225 152.124 363.512 141.972C357.69 132.204 349.563 124.031 339.85 118.177C329.754 112.432 318.351 109.412 306.751 109.412C295.151 109.412 283.748 112.432 273.652 118.177Z" fill="white" fill-opacity="0.2"/>
<path d="M464.437 261.67C449.586 252.833 437.221 240.333 428.512 225.351C419.443 210.25 414.763 192.896 415.005 175.256C414.812 157.623 419.488 140.281 428.512 125.161C437.221 110.231 449.59 97.793 464.437 89.0354C479.485 80.0056 496.707 75.2991 514.229 75.4279C526.395 75.4326 538.457 77.6773 549.819 82.051C560.8 86.3831 570.941 92.6191 579.78 100.475V7.63135H613.573V175.425C613.52 193.112 608.792 210.467 599.874 225.712C591.171 240.546 578.868 252.918 564.117 261.67C548.974 270.459 531.797 275.086 514.313 275.086C496.829 275.086 479.652 270.459 464.509 261.67H464.437ZM547.328 232.335C557.088 226.542 565.229 218.355 570.99 208.54C576.704 198.388 579.706 186.921 579.706 175.256C579.706 163.591 576.704 152.124 570.99 141.972C565.176 132.199 557.047 124.024 547.328 118.177C537.24 112.422 525.839 109.397 514.241 109.397C502.643 109.397 491.243 112.422 481.154 118.177C471.399 123.977 463.26 132.162 457.492 141.972C451.779 152.124 448.776 163.591 448.776 175.256C448.776 186.921 451.779 198.388 457.492 208.54C463.205 218.392 471.357 226.59 481.154 232.335C491.21 238.188 502.623 241.269 514.241 241.269C525.859 241.269 537.272 238.188 547.328 232.335Z" fill="white" fill-opacity="0.2"/>
<path d="M771.547 89.0351C786.399 97.7876 798.768 110.226 807.472 125.161C816.504 140.279 821.188 157.62 821.004 175.256C821.236 192.898 816.549 210.252 807.472 225.351C798.766 240.334 786.401 252.835 771.547 261.669C756.4 270.458 739.219 275.085 721.731 275.085C704.243 275.085 687.063 270.458 671.916 261.669C657.069 252.826 644.706 240.327 635.991 225.351C626.932 210.245 622.253 192.894 622.483 175.256C622.301 157.624 626.976 140.286 635.991 125.161C644.706 110.236 657.073 97.7996 671.916 89.0351C687.022 80.1245 704.218 75.427 721.731 75.427C739.245 75.427 756.441 80.1245 771.547 89.0351ZM688.633 118.177C678.877 123.977 670.738 132.162 664.97 141.972C659.257 152.124 656.254 163.591 656.254 175.256C656.254 186.921 659.257 198.388 664.97 208.54C670.684 218.392 678.835 226.59 688.633 232.335C698.688 238.187 710.101 241.269 721.719 241.269C733.338 241.269 744.751 238.187 754.806 232.335C764.602 226.555 772.777 218.367 778.564 208.54C784.434 198.452 787.449 186.943 787.282 175.256C787.449 163.569 784.434 152.06 778.564 141.972C772.75 132.199 764.621 124.024 754.902 118.177C744.814 112.422 733.413 109.397 721.815 109.397C710.217 109.397 698.817 112.422 688.728 118.177H688.633Z" fill="white" fill-opacity="0.2"/>
<path d="M1168.24 86.5309C1181.9 93.6206 1193.76 103.777 1202.9 116.214C1212.03 128.651 1218.2 143.035 1220.93 158.253C1221.71 163.89 1222.18 169.567 1222.34 175.256C1222.32 180.953 1221.85 186.639 1220.93 192.26H1059.74C1063.34 206.266 1071.48 218.664 1082.88 227.495C1094.29 236.609 1108.49 241.476 1123.07 241.271C1131.93 241.297 1140.71 239.536 1148.88 236.093C1156.66 232.623 1163.72 227.722 1169.7 221.642L1190.51 248.303C1181.55 256.595 1171.18 263.202 1159.9 267.811C1146.76 273.105 1132.64 275.509 1118.49 274.861C1104.35 274.212 1090.51 270.528 1077.9 264.054C1064.33 256.966 1052.53 246.899 1043.36 234.599C1034.04 222.125 1027.82 207.593 1025.21 192.212C1024.42 186.575 1023.95 180.898 1023.79 175.208C1023.86 169.514 1024.33 163.832 1025.21 158.205C1027.88 142.927 1034.02 128.477 1043.17 115.986C1052.29 103.568 1064.18 93.465 1077.87 86.4827C1091.83 79.1873 1107.33 75.3785 1123.05 75.3785C1138.78 75.3785 1154.28 79.1873 1168.24 86.4827V86.5309ZM1082.85 123.018C1071.5 131.886 1063.37 144.27 1059.72 158.253H1186.46C1182.74 144.303 1174.62 131.941 1163.33 123.018C1151.76 114.191 1137.64 109.412 1123.13 109.412C1108.61 109.412 1094.49 114.191 1082.93 123.018H1082.85Z" fill="#92C4C4" fill-opacity="0.1"/>
<path d="M1265.06 75.4276V100.475C1283.06 84.2685 1306.39 75.3445 1330.54 75.4276V109.362C1318.92 109.207 1307.48 112.237 1297.45 118.129C1287.69 123.929 1279.55 132.114 1273.78 141.924C1267.92 152.016 1264.91 163.523 1265.06 175.208V275.036H1231.27V75.4276H1265.06Z" fill="#92C4C4" fill-opacity="0.1"/>
<path d="M1488.54 89.0351C1503.3 97.7804 1515.6 110.154 1524.3 124.993C1533.3 140.192 1538.04 157.564 1538 175.256V275.084H1504.21V250.037C1495.43 257.947 1485.31 264.19 1474.32 268.461C1460.48 273.792 1445.63 275.948 1430.85 274.773C1416.08 273.598 1401.75 269.121 1388.91 261.669C1374.06 252.835 1361.69 240.334 1352.99 225.351C1343.91 210.252 1339.22 192.898 1339.46 175.256C1339.27 157.62 1343.95 140.279 1352.99 125.161C1361.69 110.226 1374.06 97.7876 1388.91 89.0351C1404.02 80.1245 1421.21 75.427 1438.73 75.427C1456.24 75.427 1473.44 80.1245 1488.54 89.0351ZM1405.65 118.177C1395.9 123.977 1387.76 132.162 1381.99 141.972C1376.28 152.124 1373.27 163.591 1373.27 175.256C1373.27 186.921 1376.28 198.388 1381.99 208.54C1387.7 218.392 1395.86 226.59 1405.65 232.335C1415.71 238.187 1427.12 241.269 1438.74 241.269C1450.36 241.269 1461.77 238.187 1471.83 232.335C1481.56 226.525 1489.67 218.341 1495.42 208.54C1501.13 198.388 1504.13 186.921 1504.13 175.256C1504.13 163.591 1501.13 152.124 1495.42 141.972C1489.6 132.204 1481.47 124.031 1471.75 118.177C1461.67 112.422 1450.27 109.397 1438.67 109.397C1427.07 109.397 1415.67 112.422 1405.58 118.177H1405.65Z" fill="#92C4C4" fill-opacity="0.1"/>
<circle cx="922" cy="175" r="32" fill="#92C4C4" fill-opacity="0.1"/>
</svg>
