<svg width="1608" height="351" viewBox="0 0 1608 351" fill="none" xmlns="http://www.w3.org/2000/svg">
<path d="M155.874 85.107C171.402 94.2578 184.334 107.263 193.434 122.877C202.877 138.683 207.775 156.814 207.581 175.252C207.825 193.697 202.924 211.841 193.434 227.627C184.332 243.292 171.404 256.362 155.874 265.599C140.11 274.964 122.099 279.814 103.791 279.624C78.5097 279.729 54.0887 270.398 35.2565 253.437V350.607H0.00030157V175.076C-0.0445166 156.633 4.907 138.527 14.3232 122.701C23.4155 107.186 36.2797 94.2503 51.7078 85.107C67.4154 75.5863 85.452 70.6595 103.791 70.8801C122.119 70.7473 140.132 75.6678 155.874 85.107ZM69.1857 115.575C58.9865 121.639 50.4765 130.197 44.4462 140.453C38.4729 151.067 35.3335 163.056 35.3335 175.252C35.3335 187.448 38.4729 199.437 44.4462 210.051C50.4198 220.351 58.9426 228.922 69.1857 234.929C79.699 241.048 91.6312 244.27 103.778 244.27C115.925 244.27 127.858 241.048 138.371 234.929C148.576 228.872 157.087 220.313 163.111 210.051C169.084 199.437 172.223 187.448 172.223 175.252C172.223 163.056 169.084 151.067 163.111 140.453C157.031 130.235 148.532 121.688 138.371 115.575C127.824 109.558 115.905 106.396 103.778 106.396C91.6521 106.396 79.7332 109.558 69.1857 115.575Z" fill="white" fill-opacity="0.15"/>
<path d="M372.795 85.1088C388.323 94.2597 401.255 107.265 410.355 122.879C419.798 138.685 424.696 156.816 424.503 175.254C424.746 193.699 419.845 211.843 410.355 227.629C401.253 243.294 388.325 256.364 372.795 265.6C356.958 274.789 338.996 279.626 320.712 279.626C302.428 279.626 284.466 274.789 268.629 265.6C253.099 256.364 240.171 243.294 231.069 227.629C221.579 211.843 216.678 193.699 216.921 175.254C216.728 156.816 221.626 138.685 231.069 122.879C240.169 107.265 253.101 94.2597 268.629 85.1088C284.423 75.7927 302.402 70.8813 320.712 70.8813C339.022 70.8813 357.001 75.7927 372.795 85.1088ZM286.107 115.577C275.915 121.642 267.413 130.2 261.392 140.455C255.256 151.002 252.104 163.035 252.278 175.254C252.104 187.472 255.256 199.506 261.392 210.053C267.356 220.352 275.871 228.923 286.107 234.931C296.625 241.049 308.561 244.271 320.712 244.271C332.863 244.271 344.799 241.049 355.317 234.931C365.517 228.867 374.027 220.309 380.057 210.053C386.03 199.439 389.17 187.45 389.17 175.254C389.17 163.058 386.03 151.069 380.057 140.455C373.97 130.243 365.473 121.698 355.317 115.577C344.762 109.57 332.84 106.413 320.712 106.413C308.584 106.413 296.662 109.57 286.107 115.577Z" fill="white" fill-opacity="0.15"/>
<path d="M485.575 265.601C470.048 256.362 457.12 243.292 448.016 227.629C438.533 211.841 433.641 193.696 433.893 175.254C433.691 156.818 438.58 138.687 448.016 122.879C457.121 107.269 470.052 94.2652 485.575 85.109C501.308 75.6683 519.314 70.7475 537.634 70.8822C550.353 70.8871 562.964 73.234 574.843 77.8068C586.324 82.336 596.927 88.8558 606.168 97.0696V0H641.499V175.43C641.443 193.923 636.5 212.067 627.176 228.007C618.077 243.516 605.214 256.45 589.792 265.601C573.959 274.79 556.001 279.627 537.721 279.627C519.441 279.627 501.483 274.79 485.651 265.601H485.575ZM572.239 234.931C582.443 228.874 590.955 220.315 596.978 210.053C602.952 199.439 606.091 187.45 606.091 175.254C606.091 163.058 602.952 151.069 596.978 140.455C590.899 130.237 582.4 121.69 572.239 115.577C561.691 109.561 549.772 106.398 537.646 106.398C525.52 106.398 513.601 109.561 503.053 115.577C492.854 121.641 484.344 130.199 478.314 140.455C472.341 151.069 469.201 163.058 469.201 175.254C469.201 187.45 472.341 199.439 478.314 210.053C484.288 220.354 492.81 228.924 503.053 234.931C513.567 241.05 525.499 244.272 537.646 244.272C549.793 244.272 561.725 241.05 572.239 234.931Z" fill="white" fill-opacity="0.15"/>
<path d="M806.663 85.1088C822.191 94.2597 835.123 107.265 844.223 122.879C853.666 138.685 858.564 156.816 858.371 175.254C858.614 193.699 853.713 211.843 844.223 227.629C835.121 243.294 822.193 256.364 806.663 265.6C790.826 274.789 772.864 279.626 754.58 279.626C736.296 279.626 718.334 274.789 702.497 265.6C686.975 256.354 674.049 243.287 664.937 227.629C655.466 211.836 650.574 193.695 650.815 175.254C650.624 156.819 655.513 138.692 664.937 122.879C674.049 107.274 686.979 94.2722 702.497 85.1088C718.291 75.7927 736.27 70.8813 754.58 70.8813C772.891 70.8813 790.87 75.7927 806.663 85.1088ZM719.975 115.577C709.776 121.641 701.266 130.199 695.236 140.455C689.262 151.069 686.123 163.058 686.123 175.254C686.123 187.45 689.262 199.439 695.236 210.053C701.209 220.353 709.732 228.924 719.975 234.931C730.488 241.05 742.421 244.271 754.568 244.271C766.715 244.271 778.647 241.05 789.16 234.931C799.402 228.887 807.949 220.327 814 210.053C820.137 199.506 823.289 187.472 823.115 175.254C823.289 163.035 820.137 151.002 814 140.455C807.921 130.237 799.422 121.69 789.26 115.577C778.713 109.56 766.794 106.398 754.668 106.398C742.542 106.398 730.623 109.56 720.075 115.577H719.975Z" fill="white" fill-opacity="0.15"/>
<path d="M1221.41 82.4905C1235.69 89.9028 1248.09 100.521 1257.65 113.524C1267.2 126.527 1273.65 141.566 1276.49 157.477C1277.31 163.371 1277.8 169.306 1277.97 175.254C1277.96 181.21 1277.46 187.155 1276.49 193.031H1107.98C1111.74 207.675 1120.25 220.638 1132.16 229.87C1144.1 239.4 1158.94 244.488 1174.18 244.273C1183.45 244.301 1192.63 242.46 1201.17 238.859C1209.3 235.232 1216.68 230.108 1222.93 223.751L1244.69 251.626C1235.33 260.295 1224.49 267.203 1212.69 272.022C1198.95 277.556 1184.19 280.069 1169.4 279.392C1154.61 278.714 1140.14 274.862 1126.96 268.094C1112.78 260.683 1100.43 250.158 1090.85 237.298C1081.1 224.256 1074.6 209.062 1071.87 192.981C1071.04 187.088 1070.55 181.153 1070.39 175.204C1070.46 169.25 1070.96 163.309 1071.87 157.427C1074.66 141.453 1081.09 126.346 1090.65 113.286C1100.19 100.303 1112.61 89.7402 1126.93 82.4401C1141.52 74.8127 1157.72 70.8306 1174.17 70.8306C1190.61 70.8306 1206.82 74.8127 1221.41 82.4401V82.4905ZM1132.14 120.638C1120.27 129.91 1111.77 142.857 1107.95 157.477H1240.46C1236.57 142.892 1228.08 129.967 1216.27 120.638C1204.18 111.409 1189.42 106.413 1174.24 106.413C1159.07 106.413 1144.3 111.409 1132.21 120.638H1132.14Z" fill="white" fill-opacity="0.15"/>
<path d="M1322.64 70.8819V97.0693C1341.46 80.1252 1365.85 70.7951 1391.1 70.8819V106.361C1378.95 106.198 1366.99 109.367 1356.5 115.526C1346.3 121.59 1337.79 130.148 1331.76 140.404C1325.63 150.956 1322.48 162.987 1322.64 175.203V279.575H1287.31V70.8819H1322.64Z" fill="white" fill-opacity="0.15"/>
<path d="M1556.29 85.1088C1571.72 94.2521 1584.58 107.188 1593.68 122.703C1603.09 138.594 1608.04 156.756 1608 175.254V279.626H1572.67V253.438C1563.5 261.708 1552.91 268.235 1541.42 272.701C1526.95 278.274 1511.42 280.529 1495.97 279.3C1480.53 278.072 1465.55 273.391 1452.13 265.6C1436.6 256.364 1423.67 243.294 1414.57 227.629C1405.08 211.843 1400.18 193.699 1400.42 175.254C1400.23 156.816 1405.12 138.685 1414.57 122.879C1423.67 107.265 1436.6 94.2597 1452.13 85.1088C1467.92 75.7927 1485.9 70.8813 1504.21 70.8813C1522.52 70.8813 1540.5 75.7927 1556.29 85.1088ZM1469.63 115.577C1459.43 121.641 1450.92 130.199 1444.89 140.455C1438.92 151.069 1435.78 163.058 1435.78 175.254C1435.78 187.45 1438.92 199.439 1444.89 210.053C1450.86 220.353 1459.39 228.924 1469.63 234.931C1480.14 241.05 1492.07 244.271 1504.22 244.271C1516.37 244.271 1528.3 241.05 1538.81 234.931C1548.99 228.857 1557.47 220.3 1563.48 210.053C1569.45 199.439 1572.59 187.45 1572.59 175.254C1572.59 163.058 1569.45 151.069 1563.48 140.455C1557.39 130.243 1548.89 121.698 1538.74 115.577C1528.19 109.56 1516.27 106.398 1504.15 106.398C1492.02 106.398 1480.1 109.56 1469.55 115.577H1469.63Z" fill="white" fill-opacity="0.15"/>
<circle cx="965" cy="175" r="32" fill="white" fill-opacity="0.15"/>
</svg>
