<svg width="67" height="48" viewBox="0 0 67 48" fill="none" xmlns="http://www.w3.org/2000/svg">
<g id="Kontur">
<g id="1963222405536">
<path id="Vector" d="M44.3217 48H0V0H44.3217V16.4239H42.2671V2.22512H2.0546V45.7747H42.2671V31.4701H44.3217V48Z" fill="white"/>
<path id="Vector_2" d="M9.05542 19.0698H11.1139V23.3197L14.0602 19.0698H16.5305L13.1468 23.5705L16.8007 28.8236H14.189L11.1139 24.1836V28.8236H9.05542V19.0698Z" fill="white"/>
<path id="Vector_3" d="M22.1699 26.8131C23.8302 26.8131 24.6915 25.5424 24.6915 23.947C24.6915 22.2165 23.5805 21.081 22.1699 21.081C20.7217 21.081 19.6483 22.2165 19.6483 23.947C19.6483 25.5694 20.7718 26.8131 22.1699 26.8131ZM22.1699 19.0532C24.8287 19.0532 26.8136 20.9323 26.8136 23.947C26.8136 26.8131 24.8287 28.8411 22.1699 28.8411C19.5111 28.8411 17.5261 26.9618 17.5261 23.947C17.5261 21.2027 19.3861 19.0532 22.1699 19.0532Z" fill="white"/>
<path id="Vector_4" d="M35.4721 28.8239L31.2007 22.9715V28.8239H29.2708V19.0728H30.9175L35.1892 24.9503L35.1864 19.0731H37.1162L37.119 28.8239H35.4721Z" fill="white"/>
<path id="Vector_5" d="M39.5967 19.0698H47.0589V21.16H44.357V28.8236H42.2984V21.16H39.5967V19.0698Z" fill="white"/>
<path id="Vector_6" d="M57.0466 24.6284C57.0466 27.6105 55.2969 28.8227 53.3671 28.8227C51.0512 28.8227 49.4429 27.3873 49.4429 24.5311V19.0742H51.5015V24.0573C51.5015 25.5761 51.9261 26.7326 53.3671 26.7326C54.6151 26.7326 54.9882 25.7433 54.9882 24.1826V19.0742H57.0466V24.6284Z" fill="white"/>
<path id="Vector_7" d="M61.5791 21.1924V23.3519H62.3252C63.1102 23.3519 63.7276 23.0455 63.7276 22.2234C63.7276 21.68 63.4718 21.1901 62.481 21.1901C62.1723 21.1901 62.0037 21.1784 61.5791 21.1924ZM59.5205 28.8227V19.0742C60.0222 19.0742 62.3252 19.0742 62.5826 19.0742C65.04 19.0742 65.9149 20.3982 65.9149 22.1956C65.9149 24.007 64.8857 24.7454 64.3967 25.0102L67 28.8227H64.5039L62.3381 25.4421H61.5791V28.8227H59.5205Z" fill="white"/>
</g>
</g>
</svg>
