<svg width="256" height="64" viewBox="0 0 256 64" fill="none" xmlns="http://www.w3.org/2000/svg">
<g id="logo" clip-path="url(#clip0_113_1171)">
<g id="&#208;&#161;&#208;&#187;&#208;&#190;&#208;&#185; 1">
<path id="Vector" d="M70.1538 57.8108L70.8727 57.1769C71.0738 57.5198 71.3381 57.8209 71.6514 58.0643C72.3294 58.6223 73.1777 58.9288 74.0539 58.9326C74.5501 58.9286 75.0403 58.824 75.4953 58.6253C75.9504 58.4266 76.3609 58.1377 76.7024 57.7759C77.463 57.0537 77.9151 56.063 77.9635 55.0124H72.7297V54.0966H77.9635C77.8122 53.1145 77.3343 52.213 76.6078 51.5391C76.2734 51.2041 75.8765 50.9387 75.4399 50.7582C75.0033 50.5776 74.5355 50.4855 74.0634 50.487C73.185 50.4971 72.3368 50.8104 71.6609 51.3743C71.3586 51.6207 71.0959 51.9125 70.8821 52.2395L70.1633 51.6057C70.4404 51.2168 70.7717 50.8699 71.147 50.5757C71.9727 49.9061 73.0025 49.5425 74.0634 49.5457C74.6991 49.5477 75.3274 49.6838 75.9074 49.9453C76.4875 50.2068 77.0064 50.5879 77.4307 51.0637C78.3508 52.0519 78.8627 53.3548 78.8627 54.7082C78.8627 56.0617 78.3508 57.3645 77.4307 58.3527C77.0033 58.8291 76.4809 59.2096 75.8975 59.4695C75.314 59.7294 74.6827 59.8629 74.0445 59.8612C72.9832 59.8633 71.9535 59.4985 71.1281 58.828C70.7563 58.5378 70.4282 58.1952 70.1538 57.8108Z" fill="#08C4C3"/>
<path id="Vector_2" d="M81.6492 64.0158V49.7549H82.573V51.7134C82.8209 51.3147 83.1246 50.954 83.4747 50.6422C84.3414 49.876 85.4747 49.4859 86.6268 49.5571C87.7789 49.6284 88.8561 50.1553 89.6228 51.0225C90.5032 52.0453 90.9877 53.3526 90.9877 54.705C90.9877 56.0575 90.5032 57.3647 89.6228 58.3875C88.856 59.2528 87.7813 59.7801 86.6308 59.8554C85.4804 59.9307 84.3467 59.548 83.4747 58.79C83.1192 58.475 82.815 58.1061 82.573 57.6967V64.0158H81.6492ZM86.3785 58.9611C86.8723 58.9612 87.3602 58.8532 87.8083 58.6447C88.2564 58.4362 88.6539 58.1322 88.9733 57.7537C89.6841 56.9083 90.0741 55.8372 90.0741 54.7304C90.0741 53.6235 89.6841 52.5524 88.9733 51.7071C88.6532 51.3296 88.2554 51.0265 87.8075 50.8186C87.3595 50.6107 86.8719 50.503 86.3785 50.5028C85.8722 50.4996 85.371 50.6055 84.9088 50.8132C84.4465 51.0209 84.0339 51.3257 83.6986 51.7071C82.9782 52.5479 82.5819 53.6207 82.5819 54.7304C82.5819 55.84 82.9782 56.9128 83.6986 57.7537C84.0336 58.132 84.4451 58.4341 84.9057 58.6396C85.3663 58.8451 85.8652 58.9493 86.3691 58.9453L86.3785 58.9611Z" fill="#08C4C3"/>
<path id="Vector_3" d="M99.8162 59.6679V57.9122C99.5911 58.2866 99.3067 58.6216 98.9744 58.9041C98.207 59.5549 97.2287 59.9 96.225 59.8738C95.3605 59.9078 94.5158 59.6086 93.8635 59.0372C93.5775 58.7997 93.3466 58.5022 93.187 58.1655C93.0274 57.8288 92.943 57.4611 92.9397 57.0882C92.931 56.7228 92.9967 56.3594 93.1328 56.0204C93.2689 55.6814 93.4725 55.374 93.7311 55.117C94.3322 54.5508 95.0979 54.1932 95.9161 54.0966L99.8162 53.4628C99.859 52.6618 99.586 51.8761 99.0564 51.2761C98.7964 51.0073 98.4827 50.7969 98.136 50.6587C97.7893 50.5205 97.4174 50.4577 97.0448 50.4743C96.2751 50.4788 95.5271 50.7309 94.9103 51.1937C94.6353 51.4026 94.3874 51.6453 94.1725 51.9162L93.5419 51.2824C93.7952 50.9469 94.1007 50.6547 94.4468 50.4173C95.1898 49.8469 96.0974 49.5354 97.0322 49.5299C97.5258 49.5132 98.0173 49.6008 98.4752 49.7869C98.933 49.973 99.3469 50.2536 99.6901 50.6106C100.043 50.9929 100.316 51.4421 100.494 51.9318C100.672 52.4215 100.752 52.9419 100.727 53.4628V59.6552L99.8162 59.6679ZM99.8162 55.3325V54.404L96.121 55.0378C94.6181 55.2723 93.8656 55.96 93.8635 57.1009C93.8677 57.3546 93.9302 57.6039 94.0461 57.8293C94.1621 58.0548 94.3284 58.2501 94.5319 58.4002C95.0124 58.7789 95.6119 58.9722 96.2219 58.9453C96.697 58.9566 97.1694 58.8708 97.6106 58.6933C98.0517 58.5157 98.4524 58.25 98.7884 57.9123C99.1245 57.5745 99.3888 57.1717 99.5655 56.7283C99.7421 56.2849 99.8274 55.8101 99.8162 55.3325Z" fill="#08C4C3"/>
<path id="Vector_4" d="M107.099 58.1182L107.73 57.5002C108.07 57.9419 108.505 58.3011 109.002 58.5513C109.5 58.8014 110.046 58.9361 110.602 58.9453C111.301 58.9857 111.993 58.7856 112.563 58.378C112.782 58.2184 112.96 58.009 113.083 57.7669C113.206 57.5248 113.27 57.257 113.27 56.9852C113.27 56.7135 113.206 56.4456 113.083 56.2035C112.96 55.9614 112.782 55.752 112.563 55.5924C111.993 55.1834 111.301 54.9832 110.602 55.0251H109.574V54.0966H110.602C111.2 54.1318 111.79 53.9483 112.264 53.58C112.457 53.4163 112.612 53.2107 112.715 52.9785C112.818 52.7463 112.868 52.4937 112.86 52.2395C112.861 51.9986 112.807 51.7606 112.702 51.544C112.597 51.3274 112.444 51.1381 112.254 50.9908C111.78 50.6328 111.195 50.4543 110.602 50.487C109.916 50.483 109.247 50.6995 108.692 51.1049C108.447 51.2877 108.227 51.5006 108.036 51.7388L107.317 51.0162C107.573 50.7393 107.863 50.4965 108.181 50.2936C108.903 49.826 109.743 49.5763 110.602 49.5743C111.439 49.5368 112.259 49.8161 112.901 50.357C113.179 50.5882 113.403 50.8787 113.556 51.2077C113.708 51.5366 113.786 51.8955 113.784 52.2585C113.796 52.6134 113.722 52.966 113.568 53.2857C113.414 53.6054 113.185 53.8826 112.901 54.0934C112.637 54.2823 112.345 54.4288 112.037 54.5276C112.415 54.63 112.776 54.7904 113.106 55.0029C113.442 55.2151 113.718 55.5103 113.909 55.8604C114.099 56.2104 114.197 56.6037 114.193 57.0026C114.194 57.396 114.106 57.7843 113.935 58.1384C113.765 58.4925 113.517 58.803 113.21 59.0467C112.472 59.638 111.545 59.9388 110.602 59.8929C109.654 59.9042 108.729 59.5988 107.973 59.0245C107.622 58.7864 107.325 58.4778 107.099 58.1182Z" fill="#08C4C3"/>
<path id="Vector_5" d="M115.209 62.1429V58.7393H116.028C116.389 58.2973 116.68 57.8025 116.892 57.272C117.507 55.8111 117.812 54.2374 117.788 52.6514V49.7549H124.254V58.7298H125.796V62.1334H124.872V59.6583H116.133V62.1334L115.209 62.1429ZM117.056 58.7393H123.315V50.7056H118.696V52.6641C118.721 54.2234 118.443 55.7727 117.876 57.2245C117.657 57.7573 117.382 58.2651 117.056 58.7393Z" fill="#08C4C3"/>
<path id="Vector_6" d="M135.721 58.3654C135.274 58.8418 134.735 59.2213 134.137 59.4808C133.538 59.7402 132.894 59.874 132.242 59.874C131.591 59.874 130.946 59.7402 130.348 59.4808C129.749 59.2213 129.21 58.8418 128.763 58.3654C127.837 57.38 127.322 56.0761 127.322 54.7209C127.322 53.3657 127.837 52.0618 128.763 51.0764C129.211 50.6008 129.75 50.222 130.348 49.9631C130.946 49.7042 131.591 49.5707 132.242 49.5707C132.893 49.5707 133.538 49.7042 134.136 49.9631C134.734 50.222 135.274 50.6008 135.721 51.0764C136.647 52.0618 137.163 53.3657 137.163 54.7209C137.163 56.0761 136.647 57.38 135.721 58.3654ZM129.416 57.7062C129.776 58.0969 130.212 58.4087 130.698 58.6218C131.183 58.835 131.708 58.9451 132.237 58.9451C132.767 58.9451 133.291 58.835 133.777 58.6218C134.263 58.4087 134.699 58.0969 135.059 57.7062C135.817 56.8963 136.239 55.8263 136.239 54.7146C136.239 53.6028 135.817 52.5329 135.059 51.7229C134.699 51.3331 134.262 51.0221 133.776 50.8094C133.291 50.5968 132.767 50.4871 132.237 50.4871C131.708 50.4871 131.184 50.5968 130.698 50.8094C130.213 51.0221 129.776 51.3331 129.416 51.7229C128.656 52.5321 128.234 53.6023 128.234 54.7146C128.234 55.8268 128.656 56.897 129.416 57.7062Z" fill="#08C4C3"/>
<path id="Vector_7" d="M139.94 64.0158V49.7549H140.864V51.7134C141.112 51.3147 141.415 50.954 141.765 50.6422C142.632 49.876 143.766 49.4859 144.918 49.5571C146.07 49.6284 147.147 50.1553 147.914 51.0225C148.794 52.0453 149.278 53.3526 149.278 54.705C149.278 56.0575 148.794 57.3647 147.914 58.3875C147.147 59.2528 146.072 59.7801 144.922 59.8554C143.771 59.9307 142.637 59.548 141.765 58.79C141.411 58.4742 141.107 58.1054 140.864 57.6967V64.0158H139.94ZM144.669 58.9611C145.164 58.9612 145.652 58.8533 146.1 58.6448C146.549 58.4363 146.947 58.1323 147.267 57.7537C147.976 56.9072 148.364 55.8365 148.364 54.7304C148.364 53.6242 147.976 52.5536 147.267 51.7071C146.947 51.3296 146.548 51.0264 146.1 50.8185C145.651 50.6106 145.163 50.5029 144.669 50.5028C144.163 50.4997 143.663 50.6055 143.201 50.8133C142.739 51.021 142.327 51.3258 141.992 51.7071C141.27 52.547 140.873 53.6202 140.873 54.7304C140.873 55.8406 141.27 56.9137 141.992 57.7537C142.327 58.132 142.738 58.434 143.198 58.6395C143.658 58.845 144.156 58.9493 144.66 58.9453L144.669 58.9611Z" fill="#08C4C3"/>
<path id="Vector_8" d="M159.737 58.3654C159.29 58.8418 158.751 59.2213 158.152 59.4808C157.554 59.7402 156.909 59.874 156.258 59.874C155.606 59.874 154.961 59.7402 154.363 59.4808C153.765 59.2213 153.226 58.8418 152.779 58.3654C151.853 57.38 151.337 56.0761 151.337 54.7209C151.337 53.3657 151.853 52.0618 152.779 51.0764C153.226 50.6008 153.766 50.222 154.364 49.9631C154.962 49.7042 155.606 49.5707 156.258 49.5707C156.909 49.5707 157.554 49.7042 158.152 49.9631C158.75 50.222 159.289 50.6008 159.737 51.0764C160.663 52.0618 161.178 53.3657 161.178 54.7209C161.178 56.0761 160.663 57.38 159.737 58.3654ZM153.431 57.7062C153.791 58.0969 154.228 58.4087 154.713 58.6218C155.199 58.835 155.723 58.9451 156.253 58.9451C156.783 58.9451 157.307 58.835 157.793 58.6218C158.278 58.4087 158.715 58.0969 159.075 57.7062C159.833 56.8963 160.254 55.8263 160.254 54.7146C160.254 53.6028 159.833 52.5329 159.075 51.7229C158.714 51.3331 158.278 51.0221 157.792 50.8094C157.307 50.5968 156.783 50.4871 156.253 50.4871C155.723 50.4871 155.2 50.5968 154.714 50.8094C154.228 51.0221 153.792 51.3331 153.431 51.7229C152.672 52.5321 152.249 53.6023 152.249 54.7146C152.249 55.8268 152.672 56.897 153.431 57.7062Z" fill="#08C4C3"/>
<path id="Vector_9" d="M163.956 59.6678V49.7549H168.266C169.028 49.7187 169.775 49.9811 170.35 50.4869C170.606 50.7192 170.81 51.0047 170.947 51.3236C171.083 51.6425 171.15 51.9874 171.141 52.3345C171.142 52.6383 171.078 52.9388 170.954 53.2159C170.83 53.4929 170.649 53.7402 170.422 53.9413C170.206 54.1275 169.964 54.2802 169.703 54.3945C170.037 54.4955 170.35 54.6566 170.627 54.8698C170.925 55.1089 171.163 55.4142 171.324 55.7618C171.484 56.1094 171.562 56.4897 171.551 56.8727C171.566 57.2482 171.502 57.6228 171.362 57.9714C171.223 58.32 171.011 58.6347 170.741 58.8946C170.11 59.4342 169.297 59.7079 168.471 59.6583L163.956 59.6678ZM164.879 53.992H168.266C168.782 54.0201 169.291 53.8553 169.694 53.5293C169.859 53.3793 169.991 53.1961 170.081 52.9917C170.171 52.7873 170.218 52.5661 170.218 52.3425C170.218 52.1188 170.171 51.8976 170.081 51.6932C169.991 51.4888 169.859 51.3057 169.694 51.1556C169.289 50.8341 168.781 50.6739 168.266 50.7056H164.879V53.992ZM164.879 58.7456H168.471C169.908 58.7456 170.627 58.1266 170.627 56.8885C170.627 55.5829 169.908 54.929 168.471 54.9269H164.879V58.7456Z" fill="#08C4C3"/>
<path id="Vector_10" d="M182.006 58.3653C181.559 58.8416 181.02 59.2212 180.422 59.4805C179.824 59.7399 179.18 59.8737 178.528 59.8737C177.877 59.8737 177.233 59.7399 176.635 59.4805C176.037 59.2212 175.498 58.8416 175.051 58.3653C174.125 57.38 173.609 56.0761 173.609 54.7209C173.609 53.3656 174.125 52.0617 175.051 51.0764C175.498 50.6009 176.037 50.2221 176.635 49.9632C177.233 49.7044 177.877 49.5709 178.528 49.5709C179.179 49.5709 179.824 49.7044 180.422 49.9632C181.02 50.2221 181.559 50.6009 182.006 51.0764C182.932 52.0617 183.447 53.3656 183.447 54.7209C183.447 56.0761 182.932 57.38 182.006 58.3653ZM175.7 57.7061C176.06 58.0969 176.497 58.4086 176.982 58.6218C177.468 58.835 177.992 58.945 178.522 58.945C179.052 58.945 179.576 58.835 180.062 58.6218C180.547 58.4086 180.984 58.0969 181.344 57.7061C182.102 56.8962 182.524 55.8263 182.524 54.7145C182.524 53.6027 182.102 52.5328 181.344 51.7229C180.983 51.333 180.547 51.022 180.061 50.8094C179.576 50.5967 179.052 50.487 178.522 50.487C177.993 50.487 177.469 50.5967 176.983 50.8094C176.498 51.022 176.061 51.333 175.7 51.7229C174.943 52.5328 174.521 53.6027 174.521 54.7145C174.521 55.8263 174.943 56.8962 175.7 57.7061Z" fill="#08C4C3"/>
<path id="Vector_11" d="M186.225 59.6678V49.7549H187.152V58.1086L193.719 49.7549H194.539V59.6583H193.615V51.3109L187.048 59.6678H186.225ZM187.782 45.3181H188.602C188.587 45.5711 188.624 45.8245 188.71 46.0626C188.796 46.3008 188.93 46.5187 189.103 46.7031C189.276 46.8875 189.485 47.0343 189.716 47.1347C189.948 47.2351 190.197 47.2869 190.449 47.2869C190.702 47.2869 190.951 47.2351 191.183 47.1347C191.414 47.0343 191.623 46.8875 191.796 46.7031C191.969 46.5187 192.103 46.3008 192.189 46.0626C192.275 45.8245 192.312 45.5711 192.297 45.3181H193.117C193.117 46.0292 192.836 46.7111 192.336 47.2139C191.835 47.7167 191.157 47.9992 190.449 47.9992C189.742 47.9992 189.064 47.7167 188.563 47.2139C188.063 46.7111 187.782 46.0292 187.782 45.3181Z" fill="#08C4C3"/>
<path id="Vector_12" d="M209.42 57.1896L210.139 57.8235C209.862 58.2131 209.529 58.56 209.152 58.8534C208.328 59.5232 207.299 59.8879 206.239 59.8865C205.601 59.8888 204.969 59.7557 204.386 59.4957C203.802 59.2358 203.28 58.8549 202.853 58.378C201.933 57.3898 201.421 56.087 201.421 54.7336C201.421 53.3801 201.933 52.0773 202.853 51.0891C203.28 50.6127 203.802 50.2323 204.386 49.9729C204.97 49.7135 205.601 49.5809 206.239 49.5838C207.299 49.5812 208.327 49.9449 209.152 50.6137C209.529 50.9079 209.861 51.2548 210.139 51.6437L209.42 52.2775C209.07 51.7495 208.597 51.3145 208.043 51.0094C207.49 50.7042 206.871 50.5381 206.239 50.525C205.723 50.5255 205.213 50.6359 204.742 50.849C204.272 51.062 203.851 51.3728 203.509 51.761C202.757 52.5737 202.338 53.6426 202.338 54.7526C202.338 55.8626 202.757 56.9315 203.509 57.7442C203.851 58.1328 204.271 58.4441 204.742 58.6577C205.212 58.8712 205.723 58.9822 206.239 58.9833C207.114 58.9791 207.961 58.6725 208.638 58.115C208.957 57.8615 209.223 57.547 209.42 57.1896Z" fill="#08C4C3"/>
<path id="Vector_13" d="M215.064 59.6678V50.7056H211.372V49.7549H219.683V50.7056H215.988V59.6805L215.064 59.6678Z" fill="#08C4C3"/>
<path id="Vector_14" d="M229.318 58.3654C228.871 58.8418 228.332 59.2213 227.734 59.4808C227.135 59.7402 226.491 59.874 225.839 59.874C225.188 59.874 224.543 59.7402 223.945 59.4808C223.346 59.2213 222.807 58.8418 222.36 58.3654C221.436 57.379 220.922 56.0755 220.922 54.7209C220.922 53.3664 221.436 52.0629 222.36 51.0764C222.808 50.6008 223.347 50.222 223.945 49.9631C224.543 49.7042 225.188 49.5707 225.839 49.5707C226.491 49.5707 227.135 49.7042 227.733 49.9631C228.331 50.222 228.871 50.6008 229.318 51.0764C230.244 52.0618 230.76 53.3657 230.76 54.7209C230.76 56.0761 230.244 57.38 229.318 58.3654ZM223.013 57.7062C223.373 58.0969 223.809 58.4087 224.295 58.6218C224.78 58.835 225.305 58.9451 225.834 58.9451C226.364 58.9451 226.889 58.835 227.374 58.6218C227.86 58.4087 228.296 58.0969 228.656 57.7062C229.414 56.8963 229.836 55.8263 229.836 54.7146C229.836 53.6028 229.414 52.5329 228.656 51.7229C228.296 51.3331 227.859 51.0221 227.373 50.8094C226.888 50.5968 226.364 50.4871 225.834 50.4871C225.305 50.4871 224.781 50.5968 224.295 50.8094C223.81 51.0221 223.373 51.3331 223.013 51.7229C222.255 52.5329 221.833 53.6028 221.833 54.7146C221.833 55.8263 222.255 56.8963 223.013 57.7062Z" fill="#08C4C3"/>
<path id="Vector_15" d="M233.537 59.6678V49.7549H241.734V59.6583H240.811V50.7056H234.461V59.6805L233.537 59.6678Z" fill="#08C4C3"/>
<path id="Vector_16" d="M245.237 59.6678V49.7549H246.161V53.2599H248.828C249.751 53.2192 250.655 53.5369 251.351 54.1473C251.653 54.4505 251.894 54.8108 252.057 55.2075C252.221 55.6042 252.306 56.0296 252.306 56.4591C252.306 56.8887 252.221 57.314 252.057 57.7107C251.894 58.1074 251.653 58.4677 251.351 58.771C250.655 59.3813 249.751 59.699 248.828 59.6583L245.237 59.6678ZM246.161 58.7393H248.828C249.516 58.7775 250.193 58.5509 250.72 58.1055C251.154 57.6672 251.397 57.0742 251.397 56.4559C251.397 55.8377 251.154 55.2447 250.72 54.8064C250.194 54.3596 249.517 54.1328 248.828 54.1726H246.161V58.7393ZM254.576 59.6678V49.7549H255.5V59.6583L254.576 59.6678Z" fill="#08C4C3"/>
<g id="Group 1">
<path id="Vector_17" d="M88.521 11.6792C90.3162 12.7587 91.8113 14.2929 92.8634 16.1349C93.9551 17.9995 94.5213 20.1384 94.499 22.3135C94.5271 24.4894 93.9605 26.6299 92.8634 28.4921C91.8111 30.3402 90.3164 31.882 88.521 32.9716C86.6985 34.0764 84.6162 34.6486 82.4995 34.6262C79.5767 34.6386 76.7533 33.5378 74.5761 31.5369V43H70.5V22.2927C70.4949 20.1171 71.0673 17.9811 72.1559 16.1141C73.2071 14.2839 74.6944 12.7578 76.4781 11.6792C78.2941 10.556 80.3793 9.97481 82.4995 10.0008C84.6184 9.98517 86.701 10.5656 88.521 11.6792ZM78.4987 15.2735C77.3196 15.9888 76.3357 16.9984 75.6385 18.2083C74.9479 19.4605 74.585 20.8747 74.585 22.3135C74.585 23.7523 74.9479 25.1666 75.6385 26.4187C76.3292 27.6339 77.3145 28.6449 78.4987 29.3536C79.7142 30.0754 81.0937 30.4555 82.4981 30.4555C83.9024 30.4555 85.2819 30.0754 86.4974 29.3536C87.6772 28.639 88.6612 27.6293 89.3576 26.4187C90.0482 25.1666 90.4112 23.7523 90.4112 22.3135C90.4112 20.8747 90.0482 19.4605 89.3576 18.2083C88.6548 17.0029 87.6722 15.9946 86.4974 15.2735C85.278 14.5637 83.9 14.1906 82.4981 14.1906C81.0961 14.1906 79.7181 14.5637 78.4987 15.2735Z" fill="#08C4C3"/>
<path id="Vector_18" d="M114.521 11.7039C116.316 12.7999 117.811 14.3574 118.863 16.2274C119.955 18.1204 120.521 20.2918 120.499 22.5C120.527 24.709 119.961 26.882 118.863 28.7726C117.811 30.6487 116.317 32.214 114.521 33.3202C112.69 34.4207 110.614 35 108.5 35C106.386 35 104.31 34.4207 102.479 33.3202C100.683 32.214 99.1888 30.6487 98.1366 28.7726C97.0395 26.882 96.4729 24.709 96.501 22.5C96.4787 20.2918 97.0449 18.1204 98.1366 16.2274C99.1886 14.3574 100.684 12.7999 102.479 11.7039C104.305 10.5882 106.383 10 108.5 10C110.617 10 112.695 10.5882 114.521 11.7039ZM104.499 15.3529C103.321 16.0792 102.338 17.1041 101.642 18.3324C100.933 19.5955 100.568 21.0367 100.588 22.5C100.568 23.9633 100.933 25.4045 101.642 26.6676C102.332 27.9011 103.316 28.9276 104.499 29.6471C105.715 30.3799 107.095 30.7657 108.5 30.7657C109.905 30.7657 111.285 30.3799 112.501 29.6471C113.68 28.9209 114.664 27.896 115.361 26.6676C116.051 25.3964 116.414 23.9607 116.414 22.5C116.414 21.0394 116.051 19.6036 115.361 18.3324C114.657 17.1093 113.675 16.0859 112.501 15.3529C111.28 14.6335 109.902 14.2554 108.5 14.2554C107.098 14.2554 105.72 14.6335 104.499 15.3529Z" fill="#08C4C3"/>
<path id="Vector_19" d="M127.724 33.2945C125.855 32.1711 124.298 30.5821 123.202 28.6775C122.06 26.7578 121.471 24.5517 121.501 22.3092C121.477 20.0676 122.065 17.8631 123.202 15.941C124.298 14.0429 125.855 12.4618 127.724 11.3485C129.619 10.2005 131.787 9.60223 133.993 9.61861C135.525 9.6192 137.043 9.90456 138.474 10.4606C139.856 11.0113 141.133 11.804 142.246 12.8027V1H146.5V22.3307C146.493 24.5791 145.898 26.7854 144.775 28.7234C143.68 30.6092 142.131 32.1819 140.274 33.2945C138.367 34.4118 136.205 35 134.004 35C131.802 35 129.64 34.4118 127.733 33.2945H127.724ZM138.16 29.5654C139.389 28.8289 140.414 27.7882 141.139 26.5405C141.858 25.2499 142.236 23.7922 142.236 22.3092C142.236 20.8263 141.858 19.3686 141.139 18.078C140.407 16.8356 139.384 15.7964 138.16 15.0531C136.89 14.3215 135.455 13.937 133.995 13.937C132.534 13.937 131.099 14.3215 129.829 15.0531C128.601 15.7904 127.576 16.8309 126.85 18.078C126.131 19.3686 125.753 20.8263 125.753 22.3092C125.753 23.7922 126.131 25.2499 126.85 26.5405C127.569 27.7929 128.596 28.835 129.829 29.5654C131.095 30.3094 132.532 30.7011 133.995 30.7011C135.457 30.7011 136.894 30.3094 138.16 29.5654Z" fill="#08C4C3"/>
<path id="Vector_20" d="M166.271 11.7039C168.141 12.7999 169.699 14.3574 170.795 16.2274C171.932 18.1204 172.522 20.2918 172.499 22.5C172.528 24.709 171.938 26.882 170.795 28.7726C169.699 30.6487 168.142 32.214 166.271 33.3202C164.364 34.4207 162.201 35 159.998 35C157.796 35 155.633 34.4207 153.726 33.3202C151.856 32.2129 150.299 30.6479 149.202 28.7726C148.061 26.8812 147.472 24.7085 147.501 22.5C147.478 20.2922 148.067 18.1212 149.202 16.2274C150.299 14.3585 151.857 12.8014 153.726 11.7039C155.628 10.5882 157.793 10 159.998 10C162.204 10 164.369 10.5882 166.271 11.7039ZM155.831 15.3529C154.602 16.0791 153.577 17.104 152.851 18.3324C152.132 19.6036 151.754 21.0394 151.754 22.5C151.754 23.9607 152.132 25.3964 152.851 26.6676C153.571 27.9013 154.597 28.9277 155.831 29.6471C157.097 30.3799 158.534 30.7658 159.997 30.7658C161.46 30.7658 162.897 30.3799 164.163 29.6471C165.397 28.9233 166.426 27.8981 167.155 26.6676C167.894 25.4045 168.274 23.9633 168.253 22.5C168.274 21.0367 167.894 19.5955 167.155 18.3324C166.423 17.1086 165.399 16.085 164.175 15.3529C162.905 14.6323 161.47 14.2535 160.009 14.2535C158.549 14.2535 157.113 14.6323 155.843 15.3529H155.831Z" fill="#08C4C3"/>
<path id="Vector_21" d="M209.688 11.3969C211.408 12.285 212.902 13.5572 214.052 15.115C215.202 16.6729 215.979 18.4746 216.322 20.3808C216.42 21.087 216.48 21.798 216.5 22.5107C216.498 23.2242 216.438 23.9365 216.322 24.6405H196.027C196.48 26.3949 197.505 27.948 198.94 29.054C200.377 30.1957 202.165 30.8053 204 30.7796C205.116 30.7829 206.221 30.5624 207.251 30.131C208.23 29.6964 209.118 29.0825 209.872 28.3209L212.492 31.6605C211.364 32.6991 210.059 33.5267 208.638 34.1041C206.983 34.7672 205.205 35.0682 203.424 34.987C201.643 34.9059 199.9 34.4443 198.312 33.6335C196.604 32.7456 195.118 31.4846 193.964 29.944C192.79 28.3814 192.006 26.5611 191.678 24.6345C191.579 23.9284 191.519 23.2174 191.5 22.5046C191.508 21.7914 191.568 21.0796 191.678 20.3748C192.014 18.4611 192.788 16.6511 193.94 15.0864C195.089 13.531 196.585 12.2655 198.309 11.3909C200.067 10.4771 202.018 10 203.999 10C205.979 10 207.93 10.4771 209.688 11.3909V11.3969ZM198.937 15.9673C197.507 17.0781 196.483 18.6293 196.024 20.3808H211.983C211.514 18.6334 210.492 17.0849 209.069 15.9673C207.613 14.8616 205.836 14.2631 204.008 14.2631C202.18 14.2631 200.402 14.8616 198.946 15.9673H198.937Z" fill="#08C4C3"/>
<path id="Vector_22" d="M221.585 10.0001V13.1371C223.76 11.1073 226.58 9.98967 229.5 10.0001V14.2502C228.095 14.2307 226.712 14.6103 225.499 15.3481C224.32 16.0746 223.336 17.0997 222.639 18.3284C221.931 19.5924 221.566 21.0335 221.585 22.497V35H217.5V10.0001H221.585Z" fill="#08C4C3"/>
<path id="Vector_23" d="M249.273 11.7039C251.131 12.799 252.68 14.3483 253.775 16.2063C254.909 18.1095 255.505 20.2847 255.5 22.5V34.9999H251.245V31.8637C250.141 32.8541 248.865 33.6358 247.482 34.1706C245.739 34.8381 243.869 35.1081 242.009 34.961C240.148 34.8139 238.344 34.2533 236.728 33.3202C234.858 32.2141 233.301 30.6488 232.205 28.7726C231.062 26.882 230.472 24.709 230.501 22.5C230.478 20.2918 231.068 18.1204 232.205 16.2274C233.301 14.3574 234.858 12.7999 236.728 11.7039C238.63 10.5882 240.795 10 243.001 10C245.206 10 247.371 10.5882 249.273 11.7039ZM238.836 15.3529C237.608 16.0791 236.583 17.104 235.857 18.3324C235.137 19.6036 234.759 21.0394 234.759 22.5C234.759 23.9607 235.137 25.3964 235.857 26.6677C236.576 27.9013 237.602 28.9277 238.836 29.6471C240.102 30.3799 241.539 30.7658 243.002 30.7658C244.465 30.7658 245.902 30.3799 247.168 29.6471C248.393 28.9197 249.415 27.8949 250.138 26.6677C250.858 25.3964 251.236 23.9607 251.236 22.5C251.236 21.0394 250.858 19.6036 250.138 18.3324C249.405 17.1093 248.382 16.0859 247.159 15.3529C245.889 14.6323 244.453 14.2536 242.993 14.2536C241.533 14.2536 240.097 14.6323 238.827 15.3529H238.836Z" fill="#08C4C3"/>
<path id="Vector_24" d="M181.75 27.5C184.097 27.5 186 25.5972 186 23.25C186 20.9028 184.097 19 181.75 19C179.403 19 177.5 20.9028 177.5 23.25C177.5 25.5972 179.403 27.5 181.75 27.5Z" fill="#08C4C3"/>
</g>
<path id="Vector_25" d="M38.7352 14.9613C35.3269 9.59287 31.6223 4.27829 23.8882 3.67299C19.0012 3.2927 14.1395 4.68711 9.85782 5.91672C7.40486 6.62026 4.35286 7.50127 2.25303 9.77985C-2.06013 14.4765 2.74488 21.6164 4.32448 23.9616C6.60558 27.4263 9.87988 30.1129 13.7138 31.6657C12.686 35.9907 12.9773 40.5266 14.5499 44.6829C16.1225 48.8392 18.9035 52.4233 22.5309 54.9689C26.1583 57.5144 30.4641 58.9033 34.8877 58.9549C39.3114 59.0065 43.6481 57.7184 47.3333 55.2581C51.0185 52.7979 53.8814 49.2796 55.5496 45.1611C57.2177 41.0426 57.6137 36.5147 56.686 32.1669C55.7583 27.819 53.5499 23.8526 50.3482 20.7839C47.1466 17.7151 43.1 15.6863 38.7352 14.9613ZM6.59772 22.4182C3.12954 17.2526 2.36023 13.7317 4.27088 11.6433C5.72752 10.0587 7.91248 9.33301 10.6114 8.55975C14.8709 7.33648 19.2787 6.07517 23.6738 6.41427C30.4273 6.94351 33.4478 11.713 36.916 17.2336C38.3222 19.4519 39.7788 21.7654 41.5413 23.8031C42.7741 25.2292 44.1298 26.5412 45.4383 27.8089C46.9391 29.2019 48.3562 30.6835 49.6821 32.2456C51.2364 34.1471 53.7398 37.95 53.043 41.9779C52.4314 45.5146 49.1335 48.4144 45.5392 48.576C41.9449 48.7376 38.4136 46.1738 37.3889 42.7195C37.1017 41.5984 36.9211 40.4523 36.8498 39.2969C36.7658 38.106 36.5898 36.9235 36.3232 35.7601C35.0022 30.5882 31.102 29.5836 27.0758 29.5836C25.7232 29.5836 24.3548 29.6977 23.0653 29.8022C20.9592 29.9797 18.9665 30.1413 17.3712 29.8656C13.222 29.1557 9.2966 26.4271 6.59772 22.4182Z" fill="#08C4C3"/>
<path id="Vector_26" d="M47.245 10.6862C50.1808 10.6862 52.5608 8.29402 52.5608 5.3431C52.5608 2.39219 50.1808 0 47.245 0C44.3092 0 41.9292 2.39219 41.9292 5.3431C41.9292 8.29402 44.3092 10.6862 47.245 10.6862Z" fill="#08C4C3"/>
</g>
</g>
<defs>
<clipPath id="clip0_113_1171">
<rect width="255" height="64" fill="white" transform="translate(0.5)"/>
</clipPath>
</defs>
</svg>
